<?xml version="1.0" encoding="UTF-8"?><svg id="Layer_1" xmlns="http://www.w3.org/2000/svg" viewBox="0 0 88.43 83.94"><defs><style>.cls-1{fill:#fff;}</style></defs><g id="ch4Ebd.tif"><path class="cls-1" d="m23.3,0h2.42c2.34.51,4.3,1.6,5.64,3.64.3.47.68.33,1.07.24,1.2-.27,2.4-.29,3.59-.02,3.41.77,5.78,3.32,6.34,6.81.11.71.38,1.08,1.17,1.01,1.12-.09,2.25-.02,3.34.22.71.16,1.1-.03,1.52-.6,2.33-3.15,5.4-5.28,9.21-6.13,4.14-.92,8.34-.85,12.5-.02,1.96.39,3.75,1.27,5.39,2.44.54.38.81.9.63,1.57-.16.58-.58.92-1.17,1.02-.52.09-.94-.22-1.35-.48-1.75-1.11-3.63-1.85-5.69-2.09-2.44-.28-4.89-.24-7.32-.09-3.71.24-6.83,1.86-9.31,4.67-.42.48-.51.75.18,1.06,3.46,1.53,6.21,3.91,8.24,7.1.33.51.67.64,1.28.54,3.77-.62,7.54-1.21,11.32-1.76,2.76-.4,5.04,1.35,5.47,4.14.06.37.05.75.13,1.11.18.75.9.6,1.41.75.37.11.39-.25.39-.51.08-3.63.19-7.26-1.87-10.53-.54-.85-.31-1.69.42-2.09.74-.41,1.5-.16,2.02.72,1.13,1.9,1.85,3.94,2.13,6.15.33,2.64.1,5.28.16,7.93.02.7.1,1.35.34,2.02,1.34,3.73-.96,7.55-4.92,8.16-.51.08-.83.3-1.03.78-.32.77-.74,1.49-1.24,2.16-1.09,1.46-2.46,2.56-4.09,3.36-.64.31-.86,1.2-.63,2.2.17.72.74.52,1.19.52,2.47.02,4.95-.03,7.42.02,4.91.1,8.84,4.11,8.85,8.99,0,8.28,0,16.57,0,24.85,0,2.17-1.53,3.92-3.7,4.01-2.5.1-5,.05-7.51.02-.84,0-1.42-.58-1.47-1.3-.06-.71.45-1.41,1.28-1.48.84-.07.94-.49.94-1.19-.02-4.63-.01-9.26,0-13.89,0-.37,0-.76.08-1.11.16-.65.62-1.06,1.29-1.08.71-.02,1.21.37,1.39,1.06.09.36.1.74.1,1.11,0,4.6,0,9.2,0,13.8,0,1.23,0,1.23,1.27,1.24.66,0,1.32,0,1.98,0,1.17-.01,1.63-.43,1.63-1.61.01-8,.04-15.99-.01-23.98-.03-3.99-2.7-6.56-6.66-6.57-5.38-.01-10.76,0-16.14-.01-.63,0-1.06.18-1.45.7-1.06,1.38-2.49,2.09-4.25,2.09-2.01,0-4.03,0-6.04,0-.53,0-1.26-.23-1.24.72.02.96.77.68,1.28.68,2.85.02,5.69.02,8.54,0,.7,0,1.37.1,2.04.27,4.02,1.07,6.75,4.64,6.77,8.95.03,5.67,0,11.33,0,17,0,1.93-.13,1.75,1.78,1.76,1.42,0,2.15.49,2.16,1.43,0,.94-.73,1.43-2.15,1.43-21.97,0-43.95,0-65.92,0-2.32,0-3.55-.84-4.43-2.99v-27.44c.93-4.43,4.66-7.72,10.04-7.49,2.35.1,4.71.02,7.07.02.26,0,.52,0,.78-.01.22,0,.4-.09.45-.32.05-.24-.1-.38-.3-.47-.21-.09-.43-.17-.64-.26-2.61-1.07-4.58-2.84-5.77-5.4-.34-.74-.79-1.07-1.58-1.21-3.84-.7-6.08-4.89-4.4-8.41.58-1.21.67-2.38.7-3.64.02-.83-.21-1.45-.77-2.09-2.32-2.67-2.72-6.62-.7-9.51,1.04-1.5,1.63-2.98,1.99-4.76.9-4.38,5.26-7.01,9.64-6.08.4.09.83.3,1.16-.2,1.34-2.04,3.29-3.14,5.63-3.66Zm.25,54.27c-.06-.19-.22-.18-.36-.21-2.37-.61-3.94-2.07-4.61-4.43-.18-.64-.56-.76-1.15-.76-2.88.02-5.75,0-8.63.02-2.71.02-5.07,1.83-5.83,4.43-.24.83-.33,1.69-.33,2.56,0,7.71,0,15.41,0,23.12,0,.23-.01.46.01.69.09.92.52,1.33,1.44,1.36.78.02,1.55.01,2.33,0,1.06,0,1.1-.04,1.1-1.14,0-4.63,0-9.26,0-13.89,0-1.45.46-2.17,1.39-2.19.97-.03,1.47.72,1.47,2.2,0,4.66.01,9.32-.01,13.98,0,.78.23,1.08,1.04,1.06,2.24-.04,4.49-.01,6.73-.02,1.08,0,1.11-.03,1.11-1.13,0-3.16,0-6.33,0-9.49,0-1.08.53-1.74,1.36-1.77.82-.03,1.42.65,1.48,1.68.02.29.01.57.01.86,0,2.65,0,5.29,0,7.94,0,2.1-.18,1.91,1.89,1.91,1.09,0,1.13-.04,1.13-1.11,0-2.88-.01-5.75,0-8.63.02-2.44.73-4.64,2.36-6.5.27-.31.44-.66.55-1.06.61-2.36,1.21-4.73,1.84-7.09.17-.64.05-.94-.66-.87-.23.02-.46,0-.69,0-4.46.16-6.67,3.61-6.44,6.63.04.57.02,1.16-.07,1.72-.12.77-.75,1.28-1.42,1.26-.72-.02-1.3-.61-1.34-1.43-.04-.63-.02-1.27-.01-1.9.06-3.01,1.3-5.43,3.68-7.27.22-.17.53-.25.6-.55Zm20.37,26.78c4.94,0,9.89-.01,14.83.01.76,0,1.09-.19,1.08-1.02-.04-2.99,0-5.98-.02-8.97-.04-3.52-2.51-6.33-5.97-6.68-3.34-.34-5.92,1.05-7.79,3.79-1.3,1.92-3.04,1.93-4.31,0-.77-1.17-1.75-2.14-2.98-2.81-5.51-3-11.04.76-10.77,6.23.14,2.75.02,5.52.02,8.28,0,1.14.03,1.17,1.16,1.17,4.92,0,9.83,0,14.75,0ZM20.92,19.95c2.16,0,4.31-.02,6.47.01.67.01,1.11-.19,1.52-.74,2.49-3.37,5.78-5.64,9.8-6.81.84-.24,1.03-.66.89-1.43-.65-3.5-4.22-5.42-7.51-4.03-1.5.64-1.95.46-2.68-1.05-.37-.76-.86-1.43-1.53-1.95-2.82-2.18-6.77-1.2-8.27,2.05-.64,1.37-1.17,1.58-2.58.98-.21-.09-.43-.17-.64-.24-3.66-1.15-7.45,1.89-6.94,5.64.15,1.11-.17,1.77-1,2.42-2.47,1.94-2.7,5.65-.44,7.84.89.86,1.32,1.75,1.21,2.96-.03.32-.16.82.48.78.49-.03.83-.22.82-.78,0-.49,0-.98.02-1.47.13-2.63,1.75-4.18,4.37-4.18,2.01,0,4.02,0,6.04,0Zm18.45,7.76c1.55,0,3.11,0,4.66,0,.71,0,1.42-.1,1.9-.66,1.35-1.59,3.08-2.11,5.1-1.93.48.04.98,0,1.47,0,3.31,0,5.37,2.06,5.38,5.38,0,1.27.02,1.24,1.25,1.61.6.18.69-.03.7-.55.03-1.24,0-2.48-.24-3.69-1.15-6.09-4.58-10.41-10.43-12.45-5.84-2.04-11.27-.94-15.91,3.19-3.88,3.45-5.46,7.92-5.23,13.06.01.26,0,.61.39.5.76-.21,1.55-.25,1.9-1.3.67-2,2.48-3.15,4.58-3.16,1.5,0,2.99,0,4.49,0Zm.86,2.72h0c-1.61,0-3.22-.02-4.83,0-1.67.03-2.57.75-2.66,2.31-.13,2.18-.21,4.38.19,6.53,1.15,6.24,7.03,10.18,13.25,8.96,4.62-.91,8.6-5.24,8.79-9.75.12-2.81.05-5.63.03-8.44-.01-1.23-.83-2.01-2.08-2.06-.83-.03-1.67.03-2.5-.03-1-.07-1.77.27-2.44,1.01-.94,1.03-2.12,1.52-3.54,1.48-1.41-.04-2.82,0-4.22,0Zm22.22-2.65c.31.04.4-.18.56-.28.61-.39,1.21-.39,1.74.09.53.48.62,1.08.28,1.72-.16.3-.33.61-.55.87-.48.57-.49,1,.17,1.47.59.42.8,1.08.4,1.76-.4.67-.99.92-1.77.62-.17-.07-.42-.28-.53-.02-.22.53-.08,1.06.12,1.59.16.43.36.75.9.76,1.04.03,1.89-.36,2.68-1,.75-.61,1.54-.6,2.08-.01.57.62.49,1.43-.25,2.12-1.09,1.02-2.41,1.66-3.87,1.68-1.11,0-1.43.59-1.66,1.44-.17.63.04.94.71.92,1.52-.05,3.04.06,4.56-.13,3.87-.48,6.92-3.76,6.98-7.66.05-3.22,0-6.44.01-9.66,0-.67-.19-1.25-.69-1.7-.69-.61-1.51-.46-2.3-.35-1.79.25-3.57.54-5.36.83-1.47.24-2.94.49-4.41.76-.35.07-.8.14-.63.7.36,1.14.63,2.31.83,3.47Zm-49.1,1.9c0,1.75,0,3.51,0,5.26.03,3.88,2.8,7.13,6.61,7.82,1.37.25,2.75.07,4.13.15.77.05,1.1-.21,1.07-1.02-.04-1.19-.03-1.22-1.06-1.29-1.64-.11-3.07-.72-4.22-1.91-.56-.59-.57-1.31-.09-1.87.47-.55,1.21-.64,1.87-.22.24.15.45.36.69.52,1.49,1.03,2.09.79,2.38-.95,0-.03.02-.05.02-.08.06-.27,0-.42-.3-.5-1.11-.29-1.98-1.03-2.9-1.66-.84-.57-.92-1.35-.29-2.16.67-.86,1.39-1.69,2.1-2.52.35-.41.79-.69,1.35-.61.5.07.56-.19.62-.58.2-1.51.53-3,1.12-4.41.29-.69.01-.87-.64-.87-3.65.01-7.3,0-10.95.02-1.1,0-1.49.43-1.5,1.54-.01,1.78,0,3.56,0,5.35Zm21.37,26.12q-1.68,0-2.07,1.5c-.32,1.22-.65,2.44-.96,3.66-.27,1.05-.27,1.04.76.81.53-.12,1.06-.22,1.61-.24,3.87-.18,7,1.27,9.43,4.26.33.41.49.41.82.01,3.18-3.76,7.14-5.13,11.94-3.76.51.15.71.02.56-.54-.45-1.69-.88-3.39-1.32-5.08-.07-.26-.18-.57-.46-.57-1.18.02-2.36-.38-3.44.7-3.97,3.95-10.63,4-14.67.16-.7-.66-1.37-1.11-2.2-.92Zm30.98,15.13c0-2.84,0-5.69,0-8.53,0-3.81-2.65-6.48-6.47-6.61-.75-.02-.96.17-.75.93.71,2.6,1.36,5.22,2.04,7.83.12.48.32.91.58,1.33.86,1.36,1.36,2.82,1.46,4.44.19,2.93.05,5.86.09,8.79.03,2.15-.13,1.89,1.97,1.95.83.02,1.11-.25,1.1-1.09-.04-3.02-.02-6.03-.02-9.05Zm-21.48-14.21c1.27.05,2.5-.3,3.67-.89.21-.1.6-.26.25-.55-1.13-.93-1.14-2.19-1.07-3.47.03-.68-.23-.83-.88-.71-1.45.27-2.91.27-4.37.04-1.01-.16-1.04-.12-1.02.95.01,1.05-.04,2.07-.84,2.89-.38.39,0,.55.26.7,1.22.69,2.53,1.07,4.01,1.04Zm-8.61-8.01c-1.5-1.26-2.75-2.66-3.75-4.28-.17-.27-.43-.36-.74-.35-.84.03-1.66-.05-2.46-.32-.43-.15-.66-.02-.65.47.01.77-.03,1.55.02,2.32.07,1.04.9,2.08,1.88,2.2,1.87.22,3.76.08,5.68-.03Zm-12.37-2.95c-2.29,0-2.41.14-2.08,2.45.04.25.09.51.16.76.61,2.19,3.27,3.13,5.13,1.82.41-.29.55-.51.14-.94-.67-.69-1.08-1.54-1.26-2.49q-.31-1.59-1.91-1.59c-.06,0-.11,0-.17,0Zm29.25,2.86c1.58,0,3.16-.02,4.73,0,.98.02,1.61-.46,2.12-1.23.69-1.05.47-2.21.47-3.35,0-.45-.34-.4-.62-.31-.8.27-1.62.36-2.46.33-.3,0-.58.04-.75.32-.94,1.56-2.15,2.89-3.48,4.23Zm-22.17-8.05c-.5-1.62-.3-3.46-.35-5.29-.01-.43-.25-.52-.64-.39-1.21.38-2.08,1.85-1.99,3.39.08,1.32,1.25,2.69,2.46,2.88.32.05.6.04.52-.59Zm30.21-2.99c-.08-.89-.58-1.9-1.71-2.53-.71-.4-.93-.28-.92.52.01,1.67.01,3.33-.38,4.96-.15.61.13.71.65.57,1.31-.34,2.36-1.74,2.36-3.54Zm-32.2,15.47c.16.02.29.04.43.04,2.75,0,5.51,0,8.26,0,.51,0,.91-.06.91-.72,0-.67-.42-.71-.92-.71-1.98,0-3.97.09-5.94-.03-1.25-.08-2.05.41-2.74,1.41Zm49.55-22.16c0,.86,0,1.72,0,2.59,0,.53.25.64.72.44,1.07-.45,1.83-1.68,1.82-2.99,0-1.31-.77-2.51-1.85-2.97-.48-.21-.71-.1-.7.44,0,.83,0,1.67,0,2.5Zm-67.37,1.46c0-.8,0-1.61,0-2.41,0-.58-.24-.84-.8-.52-1.13.65-1.76,1.6-1.76,2.94,0,1.34.63,2.29,1.78,2.93.48.26.78.14.78-.45,0-.83,0-1.66,0-2.5Zm54.92,13.67c.69,0,1.37,0,2.06,0,.62,0,.63-.45.63-.9,0-.42,0-.86-.58-.85-1.4.02-2.8.05-4.2.09-.57.02-.67.42-.67.9,0,.48.18.77.7.76.69,0,1.37,0,2.06,0Z"/><path class="cls-1" d="m44.25,46.21c-2.14-.04-3.61-.6-4.83-1.76-.71-.68-.79-1.43-.24-2.06.54-.62,1.29-.64,2.08-.06,1.94,1.46,3.36,1.46,5.3,0,.78-.59,1.53-.56,2.07.08.5.59.4,1.45-.27,2.07-1.28,1.19-2.82,1.72-4.1,1.73Z"/><path class="cls-1" d="m43.83,34.26c1.06,0,1.69.91,1.35,1.85-.09.24-.21.48-.37.67-.65.75-.86,1.38.11,2.11.55.41.49,1.14.06,1.71-.44.58-1.08.71-1.69.37-.85-.47-1.62-1.09-2.27-1.81-.4-.44-.45-1-.12-1.52.61-.97,1.25-1.92,1.9-2.87.26-.38.65-.54,1.04-.52Z"/><path class="cls-1" d="m38.13,31.89c1.3.11,2.45.65,3.19,1.89.45.76.32,1.52-.32,1.98-.61.44-1.33.32-1.92-.31-.91-.97-1.22-.97-2.11.01-.56.61-1.31.73-1.92.29-.59-.43-.73-1.11-.38-1.84.58-1.18,2-2.03,3.46-2.03Z"/><path class="cls-1" d="m48.08,34.34c.02-.43,0-.84.08-1.23.15-.73.62-1.19,1.38-1.19.71,0,1.21.42,1.35,1.12.17.85.16,1.72,0,2.57-.12.7-.61,1.13-1.32,1.15-.75.02-1.24-.43-1.4-1.16-.09-.42-.06-.86-.09-1.26Z"/><path class="cls-1" d="m67.58,27.21c.02-.21.02-.62.13-1,.18-.65.66-1.03,1.33-1.02.62,0,1.12.33,1.29.96.24.9.23,1.82,0,2.72-.15.63-.65.97-1.27.98-.67.01-1.13-.35-1.35-1-.16-.48-.08-.97-.13-1.65Z"/><path class="cls-1" d="m22.19,29.02c-.02.62-.27,1.05-.79,1.28-.55.24-1.06.16-1.52-.24q-1.26-1.09-2.44-.02c-.5.45-1.08.53-1.66.2-.61-.34-.76-.92-.62-1.56.27-1.26,1.96-2.36,3.56-2.34,1.55.02,3.18,1.15,3.43,2.39.02.11.03.23.04.29Z"/></g></svg>